# xmcd
#
# Track frame offsets: 
#        150
#        14822
#        34895
#        50472
#        66619
#        87405
#        100880
#        115516
#        130096
#        146617
#        164142
#        181593
#
# Disc length: 2771 seconds
#
# Revision: 0
# Processed by: cddbd v1.5.2PL0 Copyright (c) Steve Scherf et al.
# Submitted via: ExactAudioCopyFreeDBPlugin 1.0
#
DISCID=ab0ad10c
DTITLE=Margie Joseph - Margie Joseph
DYEAR=1973
DGENRE=Soul
TTITLE0=I Been Down
TTITLE1=Make Me Believe You'll Stay
TTITLE2=Let's Stay Together
TTITLE3=Turn Around And Love You
TTITLE4=I'm Only A Woman
TTITLE5=Let's Go Somewhere And Love
TTITLE6=You Better Know It
TTITLE7=Touch Your Woman
TTITLE8=I'll Take Care Of You
TTITLE9=I'm So Glad I'm Your Woman
TTITLE10=How Do You Spell Love
TTITLE11=I'd Rather Go Blind
EXTD=
EXTT0=
EXTT1=
EXTT2=
EXTT3=
EXTT4=
EXTT5=
EXTT6=
EXTT7=
EXTT8=
EXTT9=
EXTT10=
EXTT11=
PLAYORDER=
